<svg width="632" height="91" viewBox="0 0 632 91" fill="none" xmlns="http://www.w3.org/2000/svg">
<path d="M55.7713 28.1789L44.8017 90.3826H57.8669L68.8375 28.1789H55.7713Z" fill="#231F20"/>
<path d="M113.605 65.2884V52.9147L73.7204 37.0359V50.0727L79.4202 52.2717L98.8641 59.1195L73.7204 67.5369V81.2736L113.605 65.2884Z" fill="#231F20"/>
<path d="M5.07683 59.4494L39.8725 73.1862V77.3575L0 61.4797V57.2589L39.8725 41.3843V45.6589L5.07683 59.4494Z" fill="#231F20"/>
<path d="M146.437 68.9157H171.102L158.807 37.9499L146.437 68.9157ZM133.379 87.3593L155.925 30.7394H161.92L184.461 87.3593H178.391L173.228 74.3847H144.387L139.301 87.3593H133.379Z" fill="#231F20"/>
<path d="M230.152 87.3593L210.037 57.534L198.804 69.8297V87.3593H192.96V31.1189H198.804V62.1628L227.266 31.1189H234.175L213.986 53.2067L236.905 87.3593H230.152Z" fill="#231F20"/>
<path d="M266.356 37.9499L246.85 87.3593H240.929L263.473 30.7394H269.469L292.01 87.3593H285.936L266.356 37.9499Z" fill="#231F20"/>
<path d="M297.869 29.0106H317.799V89.4686H297.869V29.0106Z" fill="#231F20"/>
<path d="M367.213 68.5984C366.953 70.3367 366.143 71.0609 365.504 71.4605C364.475 72.1077 362.21 72.8815 357.256 72.8815C354.448 72.8815 352.162 72.6095 350.454 72.0666C348.963 71.6006 347.876 70.8638 347.131 69.8181C346.295 68.6522 345.727 67.3145 345.434 65.8481C345.109 64.2216 344.943 62.0352 344.943 59.3545C344.943 54.9608 345.87 51.7077 347.699 49.69C349.473 47.7303 352.763 46.7373 357.483 46.7373C360.608 46.7373 363.025 47.1126 364.668 47.8452C366.335 48.5905 367.851 49.6658 369.173 51.032L369.828 51.7077H353.023V68.5984H367.213ZM371.528 51.7077L384.487 38.7531L383.074 37.2583C377.322 31.1843 368.737 28.1008 357.561 28.1008C347.097 28.1008 338.985 30.6456 333.451 35.6687C327.851 40.7423 325.014 48.6601 325.014 59.2017C325.014 63.1516 325.281 66.6714 325.808 69.661C326.348 72.7539 327.34 75.6613 328.757 78.3009C330.219 81.0343 332.196 83.2955 334.633 85.0211C337.009 86.7088 340.068 88.0308 343.725 88.9489C347.291 89.8471 351.566 90.3035 356.42 90.3035C367.225 90.3035 374.781 88.27 379.525 84.0861C384.277 79.8895 386.686 73.2272 386.686 64.288V51.7077H371.528Z" fill="#231F20"/>
<path d="M427.802 28.6311H408.931L384.709 89.4718H404.594L407.946 80.775L418.393 51.1184L431.233 89.4718H452.184L427.802 28.6311Z" fill="#231F20"/>
<path d="M408.128 21.7338C410.981 18.1929 412.604 17.8102 413.168 17.8102C413.2 17.8102 414.033 17.8345 416.449 19.577C418.805 21.2773 421.201 22.1376 423.565 22.1376C428.889 22.1376 434.197 18.778 439.777 11.868L441.09 10.2456L429.668 0.831985L428.325 2.43429C425.32 6.02897 423.746 6.30937 423.343 6.30937C423.305 6.30937 422.495 6.26406 420.069 4.56686C417.689 2.9034 415.267 2.05903 412.863 2.05903C407.592 2.05903 402.293 5.41545 396.659 12.3212L395.333 13.9478L406.793 23.3899L408.128 21.7338Z" fill="#231F20"/>
<path d="M493 69.2372C491.278 71.3044 487.98 72.3502 483.199 72.3502C478.415 72.3502 475.116 71.3044 473.395 69.2372C471.578 67.0593 470.656 63.7851 470.656 59.5074C470.656 55.2327 471.574 51.9712 473.39 49.8218C475.108 47.7756 478.41 46.7373 483.199 46.7373C487.984 46.7373 491.287 47.7756 493.007 49.8218C494.819 51.9754 495.738 55.2327 495.738 59.5074C495.738 63.7851 494.819 67.0593 493 69.2372ZM483.199 28.1008C461.552 28.1008 450.577 38.5634 450.577 59.2017C450.577 79.8895 461.552 90.3826 483.199 90.3826C504.892 90.3826 515.894 79.8895 515.894 59.2017C515.894 38.5634 504.892 28.1008 483.199 28.1008Z" fill="#231F20"/>
<path d="M537.657 43.7277V34.3552H544.085V35.8215H539.189V38.341H543.958V39.7947H539.189V43.7277H537.657Z" fill="#231F20"/>
<path d="M548.965 38.9092H551.724C552.374 38.9092 552.852 38.7943 553.161 38.5676C553.469 38.341 553.621 37.9341 553.621 37.3406C553.621 36.7439 553.469 36.3275 553.165 36.0967C552.86 35.8627 552.374 35.7467 551.698 35.7467H548.965V38.9092ZM553.391 43.7319L551.431 40.3133H548.965V43.7319H547.473V34.3552H551.761C552.984 34.3552 553.856 34.6019 554.379 35.0963C554.902 35.5907 555.166 36.3159 555.166 37.2794C555.166 38.8807 554.441 39.8484 553 40.1858L555.038 43.7319H553.391Z" fill="#231F20"/>
<path d="M562.842 42.4512C563.99 42.4512 564.826 42.1666 565.353 41.5899C565.88 41.0175 566.144 40.1742 566.144 39.0621C566.144 37.9584 565.88 37.1182 565.353 36.5458C564.826 35.9692 563.99 35.6856 562.842 35.6856C560.65 35.6856 559.555 36.8093 559.555 39.0621C559.555 40.1742 559.819 41.0175 560.346 41.5899C560.873 42.1666 561.705 42.4512 562.842 42.4512ZM562.842 43.8796C559.622 43.8796 558.012 42.2656 558.012 39.0378C558.012 35.8131 559.622 34.2034 562.842 34.2034C566.074 34.2034 567.688 35.8131 567.688 39.0378C567.688 42.2656 566.074 43.8796 562.842 43.8796Z" fill="#231F20"/>
<path d="M571.102 43.7277V34.3552H572.762L577.694 41.125V34.3552H579.185V43.7277H577.78L572.596 36.6322V43.7277H571.102Z" fill="#231F20"/>
<path d="M585.753 43.7277V35.8215H582.377V34.3552H590.674V35.8215H587.297V43.7277H585.753Z" fill="#231F20"/>
<path d="M592.506 38.9998H596.896V40.3913H592.506V38.9998Z" fill="#231F20"/>
<path d="M600.4 43.7277V34.3552H607.018V35.8215H601.932V38.1765H606.89V39.6302H601.932V42.2867H607.067V43.7277H600.4Z" fill="#231F20"/>
<path d="M610.682 43.7277V34.3552H612.342L617.274 41.125V34.3552H618.765V43.7277H617.365L612.177 36.6322V43.7277H610.682Z" fill="#231F20"/>
<path d="M624.247 42.3109H625.889C627.248 42.3109 628.17 42.0716 628.66 41.5899C629.151 41.1124 629.393 40.2606 629.393 39.0378C629.393 38.4032 629.348 37.893 629.254 37.505C629.163 37.1182 628.986 36.7892 628.73 36.5257C628.471 36.258 628.121 36.0767 627.68 35.9691C627.236 35.8627 626.655 35.8089 625.939 35.8089H624.247V42.3109ZM622.714 43.7277V34.3552H625.914C626.853 34.3552 627.623 34.429 628.237 34.5692C628.846 34.7136 629.36 34.9645 629.781 35.3229C630.196 35.6813 630.493 36.1589 630.67 36.7597C630.851 37.3575 630.937 38.1185 630.937 39.0378C630.937 40.7993 630.546 42.0231 629.768 42.7062C628.986 43.3893 627.669 43.7277 625.815 43.7277H622.714Z" fill="#231F20"/>
<path d="M539.165 62.0848H541.973C542.619 62.0848 543.092 61.9731 543.389 61.7591C543.682 61.5451 543.829 61.1951 543.829 60.7049C543.829 60.2232 543.682 59.8774 543.389 59.6676C543.092 59.4578 542.615 59.3503 541.956 59.3503H539.165V62.0848ZM539.165 57.9462H541.906C542.533 57.9462 542.965 57.8387 543.211 57.6173C543.455 57.3991 543.578 57.0733 543.578 56.6453C543.578 56.229 543.447 55.9285 543.191 55.7346C542.932 55.5374 542.507 55.4426 541.906 55.4426H539.165V57.9462ZM537.657 63.4352V54.0627H541.857C542.997 54.0627 543.825 54.2524 544.349 54.6277C544.872 55.0019 545.135 55.5986 545.135 56.4145C545.135 57.5298 544.69 58.234 543.805 58.5312C544.352 58.663 544.752 58.9181 544.999 59.2924C545.25 59.6676 545.374 60.1863 545.374 60.8451C545.374 61.8044 545.086 62.4759 544.513 62.8628C543.941 63.2454 543.039 63.4352 541.807 63.4352H537.657Z" fill="#231F20"/>
<path d="M550.624 60.2232H554.141L552.383 55.8337L550.624 60.2232ZM547.866 63.4394L551.62 54.0016H553.193L556.961 63.4394H555.38L554.684 61.64H550.093L549.397 63.4394H547.866Z" fill="#231F20"/>
<path d="M563.933 63.5754C562.302 63.5754 561.108 63.1716 560.35 62.361C559.593 61.5535 559.214 60.3465 559.214 58.7452C559.214 57.1144 559.626 55.9042 560.445 55.1094C561.268 54.3104 562.458 53.9108 564.02 53.9108C565.469 53.9108 566.63 54.3388 567.499 55.1916L566.387 56.2911C565.744 55.6892 564.953 55.393 564.007 55.393C561.841 55.393 560.754 56.5135 560.754 58.7579C560.754 59.8774 561.013 60.7218 561.536 61.2857C562.055 61.8497 562.883 62.1343 564.02 62.1343C564.616 62.1343 565.094 62.0553 565.444 61.8993C565.794 61.7432 566.136 61.5039 566.474 61.1824L567.56 62.225C567.149 62.6445 566.667 62.9745 566.111 63.2169C565.564 63.4562 564.834 63.5754 563.933 63.5754Z" fill="#231F20"/>
<path d="M577.085 63.4352L574.099 58.9097L572.507 60.7176V63.4352H571.003V54.0627H572.507V58.7452L576.62 54.0627H578.378L575.112 57.7691L578.831 63.4352H577.085Z" fill="#231F20"/>
<path d="M581.327 58.7083H585.716V60.0956H581.327V58.7083Z" fill="#231F20"/>
<path d="M589.216 63.4352V54.0627H595.833V55.529H590.748V57.884H595.705V59.3377H590.748V61.9941H595.882V63.4352H589.216Z" fill="#231F20"/>
<path d="M599.502 63.4352V54.0627H601.157L606.091 60.8283V54.0627H607.586V63.4352H606.182L600.993 56.3407V63.4352H599.502Z" fill="#231F20"/>
<path d="M613.062 62.0184H614.71C616.064 62.0184 616.987 61.7802 617.477 61.2984C617.967 60.8167 618.21 59.9681 618.21 58.7452C618.21 58.1106 618.164 57.6004 618.073 57.2135C617.979 56.8267 617.802 56.5009 617.546 56.2332C617.291 55.9696 616.941 55.7799 616.496 55.6776C616.056 55.5701 615.475 55.5164 614.759 55.5164H613.062V62.0184ZM611.53 63.4394V54.0627H614.734C615.669 54.0627 616.443 54.1375 617.052 54.2777C617.666 54.4211 618.181 54.673 618.596 55.0304C619.013 55.3888 619.313 55.8663 619.49 56.4683C619.667 57.0649 619.754 57.8271 619.754 58.7452C619.754 60.5078 619.367 61.7306 618.584 62.4095C617.802 63.0979 616.484 63.4394 614.631 63.4394H611.53Z" fill="#231F20"/>
<path d="M539.189 81.7311H540.832C542.191 81.7311 543.113 81.4876 543.604 81.0059C544.093 80.5241 544.336 79.6755 544.336 78.4527C544.336 77.8192 544.291 77.3079 544.196 76.921C544.105 76.5341 543.928 76.2084 543.673 75.9406C543.414 75.6771 543.064 75.4884 542.623 75.3851C542.178 75.2776 541.598 75.2249 540.882 75.2249H539.189V81.7311ZM537.657 83.1469V73.7712H540.856C541.796 73.7712 542.565 73.845 543.179 73.9852C543.788 74.1296 544.304 74.3805 544.723 74.7389C545.14 75.0973 545.436 75.5748 545.613 76.1757C545.794 76.7724 545.881 77.5345 545.881 78.4527C545.881 80.2153 545.489 81.4381 544.71 82.118C543.928 82.8053 542.611 83.1469 540.757 83.1469H537.657Z" fill="#231F20"/>
<path d="M549.281 83.1427V73.7712H555.899V75.2365H550.813V77.5925H555.772V79.0462H550.813V81.7016H555.948V83.1427H549.281Z" fill="#231F20"/>
<path d="M562.499 83.2091L558.781 73.7712H560.387L563.311 81.2863L566.21 73.7712H567.816L564.069 83.2091H562.499Z" fill="#231F20"/>
<path d="M570.978 83.1427V73.7712H577.592V75.2365H572.507V77.5925H577.464V79.0462H572.507V81.7016H577.641V83.1427H570.978Z" fill="#231F20"/>
<path d="M581.26 83.1427V73.7712H582.792V81.7385H587.585V83.1427H581.26Z" fill="#231F20"/>
<path d="M594.594 81.8661C595.742 81.8661 596.578 81.5826 597.105 81.0102C597.632 80.4335 597.896 79.5891 597.896 78.4781C597.896 77.3701 597.632 76.5342 597.105 75.9618C596.578 75.3894 595.742 75.1006 594.594 75.1006C592.404 75.1006 591.304 76.2253 591.304 78.4781C591.304 79.5891 591.568 80.4335 592.095 81.0102C592.622 81.5826 593.458 81.8661 594.594 81.8661ZM594.594 83.2956C591.374 83.2956 589.764 81.6817 589.764 78.4528C589.764 75.2292 591.374 73.6184 594.594 73.6184C597.822 73.6184 599.44 75.2292 599.44 78.4528C599.44 81.6817 597.822 83.2956 594.594 83.2956Z" fill="#231F20"/>
<path d="M604.345 78.556H607.154C607.812 78.556 608.298 78.42 608.611 78.1523C608.923 77.8887 609.076 77.4481 609.076 76.8304C609.076 76.2084 608.928 75.772 608.623 75.5295C608.318 75.286 607.821 75.1627 607.132 75.1627H604.345V78.556ZM602.855 83.1427V73.7712H607.154C608.385 73.7712 609.27 74.0179 609.805 74.5207C610.34 75.014 610.608 75.7635 610.608 76.7566C610.608 77.7854 610.336 78.576 609.793 79.12C609.249 79.6713 608.348 79.9433 607.091 79.9433H604.345V83.1427H602.855Z" fill="#231F20"/>
<path d="M614.021 83.1427V73.7712H620.639V75.2365H615.553V77.5925H620.512V79.0462H615.553V81.7016H620.689V83.1427H614.021Z" fill="#231F20"/>
<path d="M625.803 78.3251H628.557C629.209 78.3251 629.686 78.2145 629.995 77.9836C630.304 77.757 630.456 77.3448 630.456 76.7566C630.456 76.1588 630.304 75.7435 629.999 75.5084C629.698 75.2776 629.209 75.1627 628.533 75.1627H625.803V78.3251ZM630.229 83.1427L628.269 79.7293H625.803V83.1427H624.308V73.7712H628.595C629.822 73.7712 630.695 74.0179 631.218 74.5123C631.737 75.0067 632 75.7309 632 76.6944C632 78.2967 631.279 79.2686 629.834 79.6059L631.872 83.1427H630.229Z" fill="#231F20"/>
</svg>
